<svg width="55" height="55" viewBox="0 0 55 55" fill="none" xmlns="http://www.w3.org/2000/svg">
<g filter="url(#filter0_d_337_559)">
<path fill-rule="evenodd" clip-rule="evenodd" d="M46 23.5C46 13.2827 37.7173 5 27.5 5C17.2827 5 9 13.2827 9 23.5C9 33.7173 17.2827 42 27.5 42C37.7173 42 46 33.7173 46 23.5ZM24.7767 13.2645C24.2325 12.7251 23.354 12.729 22.8145 13.2733C22.2751 13.8175 22.279 14.696 22.8233 15.2355L26.0848 18.468C27.4084 19.7799 28.3164 20.6828 28.9308 21.4478C29.5276 22.1909 29.7324 22.6683 29.7868 23.0958C29.8211 23.3642 29.8211 23.6358 29.7868 23.9042C29.7324 24.3317 29.5276 24.8091 28.9308 25.5522C28.3164 26.3172 27.4084 27.2201 26.0848 28.532L22.8233 31.7645C22.279 32.304 22.2751 33.1825 22.8145 33.7267C23.354 34.271 24.2325 34.2749 24.7767 33.7355L28.097 30.4447C29.3475 29.2053 30.3696 28.1924 31.0944 27.2898C31.8482 26.3512 32.3938 25.3986 32.5396 24.2551C32.6035 23.7537 32.6035 23.2463 32.5396 22.7449C32.3938 21.6014 31.8482 20.6487 31.0944 19.7102C30.3696 18.8076 29.3475 17.7947 28.097 16.5553L24.7767 13.2645Z" fill="#FAFAFA"/>
<path d="M33.7795 24.4131L32.5396 24.2551L33.7795 24.4131C33.8568 23.8068 33.8568 23.1932 33.7795 22.5869L32.5396 22.7449L33.7795 22.5869C33.5927 21.1208 32.8934 19.954 32.0691 18.9275C31.2996 17.9694 30.2358 16.9151 29.0235 15.7136L28.9769 15.6675L28.9769 15.6675L25.6567 12.3767C24.6221 11.3513 22.9521 11.3588 21.9267 12.3933C20.9013 13.4279 20.9088 15.0979 21.9433 16.1233L25.2048 19.3558C26.5499 20.6889 27.3968 21.5339 27.9562 22.2305C28.4822 22.8855 28.5335 23.1487 28.5469 23.2538C28.5677 23.4173 28.5677 23.5827 28.5469 23.7462C28.5335 23.8513 28.4822 24.1145 27.9562 24.7695C27.3968 25.4661 26.5499 26.3111 25.2048 27.6442L21.9433 30.8767C20.9088 31.9021 20.9013 33.5721 21.9267 34.6067C22.9521 35.6412 24.6221 35.6487 25.6567 34.6233L28.9769 31.3325L28.9769 31.3325L29.0235 31.2864C30.2358 30.0849 31.2996 29.0306 32.0691 28.0725C32.8934 27.046 33.5927 25.8792 33.7795 24.4131ZM27.5 6.25C37.0269 6.25 44.75 13.9731 44.75 23.5C44.75 33.0269 37.0269 40.75 27.5 40.75C17.9731 40.75 10.25 33.0269 10.25 23.5C10.25 13.9731 17.9731 6.25 27.5 6.25Z" stroke="#F2F2F2" stroke-width="2.5" stroke-linecap="round"/>
</g>
<defs>
<filter id="filter0_d_337_559" x="0.7" y="0.7" width="53.6" height="53.6" filterUnits="userSpaceOnUse" color-interpolation-filters="sRGB">
<feFlood flood-opacity="0" result="BackgroundImageFix"/>
<feColorMatrix in="SourceAlpha" type="matrix" values="0 0 0 0 0 0 0 0 0 0 0 0 0 0 0 0 0 0 127 0" result="hardAlpha"/>
<feOffset dy="4"/>
<feGaussianBlur stdDeviation="4.15"/>
<feComposite in2="hardAlpha" operator="out"/>
<feColorMatrix type="matrix" values="0 0 0 0 0 0 0 0 0 0 0 0 0 0 0 0 0 0 0.27 0"/>
<feBlend mode="normal" in2="BackgroundImageFix" result="effect1_dropShadow_337_559"/>
<feBlend mode="normal" in="SourceGraphic" in2="effect1_dropShadow_337_559" result="shape"/>
</filter>
</defs>
</svg>
