<svg width="55" height="55" viewBox="0 0 55 55" fill="none" xmlns="http://www.w3.org/2000/svg">
<g filter="url(#filter0_d_337_557)">
<path fill-rule="evenodd" clip-rule="evenodd" d="M9 23.5C9 13.2827 17.2827 5 27.5 5C37.7173 5 46 13.2827 46 23.5C46 33.7173 37.7173 42 27.5 42C17.2827 42 9 33.7173 9 23.5ZM30.2233 13.2645C30.7675 12.7251 31.646 12.729 32.1855 13.2733C32.7249 13.8175 32.721 14.696 32.1767 15.2355L28.9152 18.468C27.5916 19.7799 26.6836 20.6828 26.0692 21.4478C25.4724 22.1909 25.2676 22.6683 25.2132 23.0958C25.1789 23.3642 25.1789 23.6358 25.2132 23.9042C25.2676 24.3317 25.4724 24.8091 26.0692 25.5522C26.6836 26.3172 27.5916 27.2201 28.9152 28.532L32.1767 31.7645C32.721 32.304 32.7249 33.1825 32.1855 33.7267C31.646 34.271 30.7675 34.2749 30.2233 33.7355L26.903 30.4447C25.6525 29.2053 24.6304 28.1924 23.9056 27.2898C23.1518 26.3512 22.6062 25.3986 22.4604 24.2551C22.3965 23.7537 22.3965 23.2463 22.4604 22.7449C22.6062 21.6014 23.1518 20.6487 23.9056 19.7102C24.6304 18.8076 25.6525 17.7947 26.903 16.5553L30.2233 13.2645Z" fill="#FAFAFA"/>
<path d="M21.2205 24.4131L22.4604 24.2551L21.2205 24.4131C21.1432 23.8068 21.1432 23.1932 21.2205 22.5869L22.4604 22.7449L21.2205 22.5869C21.4073 21.1208 22.1066 19.954 22.9309 18.9275C23.7004 17.9694 24.7642 16.9151 25.9765 15.7136L26.0231 15.6675L26.0231 15.6675L29.3433 12.3767C30.3779 11.3513 32.0479 11.3588 33.0733 12.3933C34.0987 13.4279 34.0912 15.0979 33.0567 16.1233L29.7952 19.3558C28.4501 20.6889 27.6032 21.5339 27.0438 22.2305C26.5178 22.8855 26.4665 23.1487 26.4531 23.2538C26.4323 23.4173 26.4323 23.5827 26.4531 23.7462C26.4665 23.8513 26.5178 24.1145 27.0438 24.7695C27.6032 25.4661 28.4501 26.3111 29.7952 27.6442L33.0567 30.8767C34.0912 31.9021 34.0987 33.5721 33.0733 34.6067C32.0479 35.6412 30.3779 35.6487 29.3433 34.6233L26.0231 31.3325L26.0231 31.3325L25.9765 31.2864C24.7642 30.0849 23.7004 29.0306 22.9309 28.0725C22.1066 27.046 21.4073 25.8792 21.2205 24.4131ZM27.5 6.25C17.9731 6.25 10.25 13.9731 10.25 23.5C10.25 33.0269 17.9731 40.75 27.5 40.75C37.0269 40.75 44.75 33.0269 44.75 23.5C44.75 13.9731 37.0269 6.25 27.5 6.25Z" stroke="#F2F2F2" stroke-width="2.5" stroke-linecap="round"/>
</g>
<defs>
<filter id="filter0_d_337_557" x="0.7" y="0.7" width="53.6" height="53.6" filterUnits="userSpaceOnUse" color-interpolation-filters="sRGB">
<feFlood flood-opacity="0" result="BackgroundImageFix"/>
<feColorMatrix in="SourceAlpha" type="matrix" values="0 0 0 0 0 0 0 0 0 0 0 0 0 0 0 0 0 0 127 0" result="hardAlpha"/>
<feOffset dy="4"/>
<feGaussianBlur stdDeviation="4.15"/>
<feComposite in2="hardAlpha" operator="out"/>
<feColorMatrix type="matrix" values="0 0 0 0 0 0 0 0 0 0 0 0 0 0 0 0 0 0 0.27 0"/>
<feBlend mode="normal" in2="BackgroundImageFix" result="effect1_dropShadow_337_557"/>
<feBlend mode="normal" in="SourceGraphic" in2="effect1_dropShadow_337_557" result="shape"/>
</filter>
</defs>
</svg>
